<mxfile host="app.diagrams.net" modified="2024-03-06T06:24:06.139Z" agent="Mozilla/5.0 (Windows NT 10.0; Win64; x64) AppleWebKit/537.36 (KHTML, like Gecko) Chrome/122.0.0.0 Safari/537.36" etag="JwIcHyzfCkv_XnKwdlSG" version="24.0.0" type="google">
  <diagram name="Página-1" id="NBkt7IvmojByfJSfpqG8">
    <mxGraphModel grid="1" page="1" gridSize="10" guides="1" tooltips="1" connect="1" arrows="1" fold="1" pageScale="1" pageWidth="827" pageHeight="1169" math="0" shadow="0">
      <root>
        <mxCell id="0" />
        <mxCell id="1" parent="0" />
        <mxCell id="d0QmDexkah37YJwRi1FS-4" value=";./" style="rounded=0;whiteSpace=wrap;html=1;fillColor=none;dashed=1;" vertex="1" parent="1">
          <mxGeometry x="3460" y="1420" width="490" height="660" as="geometry" />
        </mxCell>
        <mxCell id="d0QmDexkah37YJwRi1FS-5" value="&#xa;&lt;span style=&quot;color: rgb(0, 0, 0); font-family: Helvetica; font-size: 11px; font-style: normal; font-variant-ligatures: normal; font-variant-caps: normal; font-weight: 400; letter-spacing: normal; orphans: 2; text-align: center; text-indent: 0px; text-transform: none; widows: 2; word-spacing: 0px; -webkit-text-stroke-width: 0px; background-color: rgb(255, 255, 255); text-decoration-thickness: initial; text-decoration-style: initial; text-decoration-color: initial; float: none; display: inline !important;&quot;&gt;(HTTP/ JSON)&lt;/span&gt;&#xa;&#xa;" style="rounded=0;whiteSpace=wrap;html=1;fillColor=none;dashed=1;" vertex="1" parent="1">
          <mxGeometry x="880" y="-60" width="2330" height="1500" as="geometry" />
        </mxCell>
        <mxCell id="d0QmDexkah37YJwRi1FS-6" value="" style="rounded=0;whiteSpace=wrap;html=1;fillColor=none;dashed=1;" vertex="1" parent="1">
          <mxGeometry x="3280" y="130" width="846" height="470" as="geometry" />
        </mxCell>
        <mxCell id="d0QmDexkah37YJwRi1FS-7" style="edgeStyle=orthogonalEdgeStyle;rounded=0;orthogonalLoop=1;jettySize=auto;html=1;dashed=1;" edge="1" parent="1" source="d0QmDexkah37YJwRi1FS-65" target="d0QmDexkah37YJwRi1FS-68">
          <mxGeometry relative="1" as="geometry" />
        </mxCell>
        <mxCell id="d0QmDexkah37YJwRi1FS-8" style="edgeStyle=orthogonalEdgeStyle;rounded=0;orthogonalLoop=1;jettySize=auto;html=1;entryX=0.5;entryY=0;entryDx=0;entryDy=0;dashed=1;" edge="1" parent="1" source="d0QmDexkah37YJwRi1FS-9" target="d0QmDexkah37YJwRi1FS-14">
          <mxGeometry relative="1" as="geometry" />
        </mxCell>
        <mxCell id="d0QmDexkah37YJwRi1FS-9" value="&lt;br&gt;&lt;br&gt;&lt;br&gt;&lt;br&gt;Customer" style="shape=actor;whiteSpace=wrap;html=1;" vertex="1" parent="1">
          <mxGeometry x="235.38" y="40" width="114.25" height="100" as="geometry" />
        </mxCell>
        <mxCell id="d0QmDexkah37YJwRi1FS-10" style="edgeStyle=orthogonalEdgeStyle;rounded=0;orthogonalLoop=1;jettySize=auto;html=1;dashed=1;" edge="1" parent="1" source="d0QmDexkah37YJwRi1FS-14" target="d0QmDexkah37YJwRi1FS-16">
          <mxGeometry relative="1" as="geometry">
            <Array as="points">
              <mxPoint x="527" y="290" />
              <mxPoint x="527" y="195" />
            </Array>
          </mxGeometry>
        </mxCell>
        <mxCell id="d0QmDexkah37YJwRi1FS-11" value="Solicita envio de Email" style="edgeLabel;html=1;align=center;verticalAlign=middle;resizable=0;points=[];" connectable="0" vertex="1" parent="d0QmDexkah37YJwRi1FS-10">
          <mxGeometry x="-0.1381" y="-2" relative="1" as="geometry">
            <mxPoint y="-2" as="offset" />
          </mxGeometry>
        </mxCell>
        <mxCell id="d0QmDexkah37YJwRi1FS-12" style="edgeStyle=orthogonalEdgeStyle;rounded=0;orthogonalLoop=1;jettySize=auto;html=1;dashed=1;" edge="1" parent="1" source="d0QmDexkah37YJwRi1FS-14">
          <mxGeometry relative="1" as="geometry">
            <Array as="points">
              <mxPoint x="527" y="310" />
              <mxPoint x="527" y="385" />
            </Array>
            <mxPoint x="597" y="385" as="targetPoint" />
          </mxGeometry>
        </mxCell>
        <mxCell id="d0QmDexkah37YJwRi1FS-13" value="Realiza a compra&lt;br&gt;e&lt;br&gt;retorna o status" style="edgeLabel;html=1;align=center;verticalAlign=middle;resizable=0;points=[];" connectable="0" vertex="1" parent="d0QmDexkah37YJwRi1FS-12">
          <mxGeometry x="0.0785" y="1" relative="1" as="geometry">
            <mxPoint as="offset" />
          </mxGeometry>
        </mxCell>
        <mxCell id="d0QmDexkah37YJwRi1FS-14" value="&lt;span style=&quot;font-size: 17px;&quot;&gt;&lt;b&gt;Shoes Click&lt;br&gt;&lt;/b&gt;&lt;/span&gt;&lt;br&gt;Site que permite que o usuário faça compras, adicione aos favoritos e gerencie sua conta de usuário e o status do pedido." style="rounded=0;whiteSpace=wrap;html=1;fillColor=#dae8fc;strokeColor=#6c8ebf;" vertex="1" parent="1">
          <mxGeometry x="147" y="260" width="291" height="100" as="geometry" />
        </mxCell>
        <mxCell id="d0QmDexkah37YJwRi1FS-15" value="Usuário que fará compras no site" style="text;html=1;align=center;verticalAlign=middle;whiteSpace=wrap;rounded=0;fillColor=#f5f5f5;fontColor=#333333;strokeColor=#666666;" vertex="1" parent="1">
          <mxGeometry x="182.5" y="170" width="220" height="30" as="geometry" />
        </mxCell>
        <mxCell id="d0QmDexkah37YJwRi1FS-16" value="&lt;font size=&quot;1&quot; style=&quot;&quot;&gt;&lt;b style=&quot;font-size: 14px;&quot;&gt;Email Notification&lt;/b&gt;&lt;/font&gt;" style="rounded=0;whiteSpace=wrap;html=1;fillColor=#f5f5f5;fontColor=#333333;strokeColor=#666666;" vertex="1" parent="1">
          <mxGeometry x="597" y="150" width="200" height="90" as="geometry" />
        </mxCell>
        <mxCell id="d0QmDexkah37YJwRi1FS-17" style="edgeStyle=orthogonalEdgeStyle;rounded=0;orthogonalLoop=1;jettySize=auto;html=1;entryX=0.5;entryY=0;entryDx=0;entryDy=0;dashed=1;" edge="1" parent="1" source="d0QmDexkah37YJwRi1FS-19" target="d0QmDexkah37YJwRi1FS-22">
          <mxGeometry relative="1" as="geometry" />
        </mxCell>
        <mxCell id="d0QmDexkah37YJwRi1FS-18" style="edgeStyle=orthogonalEdgeStyle;rounded=0;orthogonalLoop=1;jettySize=auto;html=1;dashed=1;" edge="1" parent="1" source="d0QmDexkah37YJwRi1FS-19" target="d0QmDexkah37YJwRi1FS-25">
          <mxGeometry relative="1" as="geometry" />
        </mxCell>
        <mxCell id="d0QmDexkah37YJwRi1FS-19" value="&lt;br&gt;&lt;br&gt;&lt;br&gt;Customer" style="shape=actor;whiteSpace=wrap;html=1;" vertex="1" parent="1">
          <mxGeometry x="1615" y="40" width="79.5" height="100" as="geometry" />
        </mxCell>
        <mxCell id="d0QmDexkah37YJwRi1FS-20" style="edgeStyle=orthogonalEdgeStyle;rounded=0;orthogonalLoop=1;jettySize=auto;html=1;entryX=0.5;entryY=0;entryDx=0;entryDy=0;dashed=1;" edge="1" parent="1" source="d0QmDexkah37YJwRi1FS-22" target="d0QmDexkah37YJwRi1FS-32">
          <mxGeometry relative="1" as="geometry" />
        </mxCell>
        <mxCell id="d0QmDexkah37YJwRi1FS-21" value="Comprar, Acompanhar Pedido&lt;br&gt;Gerenciar conta" style="edgeLabel;html=1;align=center;verticalAlign=middle;resizable=0;points=[];" connectable="0" vertex="1" parent="d0QmDexkah37YJwRi1FS-20">
          <mxGeometry x="-0.218" relative="1" as="geometry">
            <mxPoint as="offset" />
          </mxGeometry>
        </mxCell>
        <mxCell id="d0QmDexkah37YJwRi1FS-22" value="&lt;font style=&quot;font-size: 12px;&quot;&gt;&lt;b&gt;FRONT END&lt;/b&gt;&lt;br&gt;Javascript / Angular&lt;br&gt;&lt;/font&gt;" style="rounded=0;whiteSpace=wrap;html=1;fillColor=#dae8fc;strokeColor=#6c8ebf;" vertex="1" parent="1">
          <mxGeometry x="1390" y="230" width="226" height="100" as="geometry" />
        </mxCell>
        <mxCell id="d0QmDexkah37YJwRi1FS-23" style="edgeStyle=orthogonalEdgeStyle;rounded=0;orthogonalLoop=1;jettySize=auto;html=1;entryX=0.614;entryY=0.001;entryDx=0;entryDy=0;dashed=1;entryPerimeter=0;" edge="1" parent="1" source="d0QmDexkah37YJwRi1FS-25" target="d0QmDexkah37YJwRi1FS-32">
          <mxGeometry relative="1" as="geometry">
            <mxPoint x="1802.9999999999995" y="510" as="targetPoint" />
          </mxGeometry>
        </mxCell>
        <mxCell id="d0QmDexkah37YJwRi1FS-24" value="Comprar, Acompanhar Pedido&lt;br style=&quot;border-color: var(--border-color);&quot;&gt;Gerenciar conta" style="edgeLabel;html=1;align=center;verticalAlign=middle;resizable=0;points=[];" connectable="0" vertex="1" parent="d0QmDexkah37YJwRi1FS-23">
          <mxGeometry x="-0.3263" y="3" relative="1" as="geometry">
            <mxPoint x="-3" y="9" as="offset" />
          </mxGeometry>
        </mxCell>
        <mxCell id="d0QmDexkah37YJwRi1FS-25" value="&lt;b style=&quot;border-color: var(--border-color);&quot;&gt;Mobile APP&lt;/b&gt;&lt;br style=&quot;border-color: var(--border-color);&quot;&gt;Dart/ Flutter" style="rounded=0;whiteSpace=wrap;html=1;fillColor=#dae8fc;strokeColor=#6c8ebf;" vertex="1" parent="1">
          <mxGeometry x="1690.25" y="230" width="226" height="100" as="geometry" />
        </mxCell>
        <mxCell id="d0QmDexkah37YJwRi1FS-32" value="&lt;b style=&quot;border-color: var(--border-color);&quot;&gt;BFF&amp;nbsp;&lt;/b&gt;&lt;br style=&quot;border-color: var(--border-color);&quot;&gt;Java / Spring Boot" style="rounded=0;whiteSpace=wrap;html=1;fillColor=#dae8fc;strokeColor=#6c8ebf;" vertex="1" parent="1">
          <mxGeometry x="1541.75" y="510" width="226" height="100" as="geometry" />
        </mxCell>
        <mxCell id="d0QmDexkah37YJwRi1FS-37" value="&lt;font size=&quot;1&quot; style=&quot;&quot;&gt;&lt;b style=&quot;font-size: 14px;&quot;&gt;Payment Notification&lt;/b&gt;&lt;/font&gt;" style="rounded=0;whiteSpace=wrap;html=1;fillColor=#f5f5f5;fontColor=#333333;strokeColor=#666666;" vertex="1" parent="1">
          <mxGeometry x="596" y="340" width="200" height="90" as="geometry" />
        </mxCell>
        <mxCell id="d0QmDexkah37YJwRi1FS-38" style="edgeStyle=orthogonalEdgeStyle;rounded=0;orthogonalLoop=1;jettySize=auto;html=1;dashed=1;" edge="1" parent="1" source="d0QmDexkah37YJwRi1FS-40" target="d0QmDexkah37YJwRi1FS-59">
          <mxGeometry relative="1" as="geometry" />
        </mxCell>
        <mxCell id="d0QmDexkah37YJwRi1FS-39" value="Leitura e escrita" style="edgeLabel;html=1;align=center;verticalAlign=middle;resizable=0;points=[];" connectable="0" vertex="1" parent="d0QmDexkah37YJwRi1FS-38">
          <mxGeometry x="-0.0235" y="3" relative="1" as="geometry">
            <mxPoint as="offset" />
          </mxGeometry>
        </mxCell>
        <mxCell id="d0QmDexkah37YJwRi1FS-40" value="&lt;b&gt;api--customer&lt;/b&gt;&lt;br style=&quot;border-color: var(--border-color);&quot;&gt;Java / Spring Boot" style="rounded=0;whiteSpace=wrap;html=1;fillColor=#dae8fc;strokeColor=#6c8ebf;" vertex="1" parent="1">
          <mxGeometry x="1135.75" y="920" width="226" height="100" as="geometry" />
        </mxCell>
        <mxCell id="d0QmDexkah37YJwRi1FS-41" style="edgeStyle=orthogonalEdgeStyle;rounded=0;orthogonalLoop=1;jettySize=auto;html=1;dashed=1;" edge="1" parent="1" source="d0QmDexkah37YJwRi1FS-43" target="d0QmDexkah37YJwRi1FS-60">
          <mxGeometry relative="1" as="geometry" />
        </mxCell>
        <mxCell id="d0QmDexkah37YJwRi1FS-42" value="Leitura e escrita" style="edgeLabel;html=1;align=center;verticalAlign=middle;resizable=0;points=[];" connectable="0" vertex="1" parent="d0QmDexkah37YJwRi1FS-41">
          <mxGeometry x="0.0133" y="-1" relative="1" as="geometry">
            <mxPoint as="offset" />
          </mxGeometry>
        </mxCell>
        <mxCell id="d0QmDexkah37YJwRi1FS-43" value="&lt;b style=&quot;border-color: var(--border-color);&quot;&gt;api--product&amp;nbsp;&lt;/b&gt;&lt;br style=&quot;border-color: var(--border-color);&quot;&gt;Java / Spring Boot" style="rounded=0;whiteSpace=wrap;html=1;fillColor=#dae8fc;strokeColor=#6c8ebf;" vertex="1" parent="1">
          <mxGeometry x="1541.75" y="920" width="226" height="100" as="geometry" />
        </mxCell>
        <mxCell id="d0QmDexkah37YJwRi1FS-46" style="edgeStyle=orthogonalEdgeStyle;rounded=0;orthogonalLoop=1;jettySize=auto;html=1;dashed=1;" edge="1" parent="1" source="d0QmDexkah37YJwRi1FS-48" target="d0QmDexkah37YJwRi1FS-62">
          <mxGeometry relative="1" as="geometry" />
        </mxCell>
        <mxCell id="d0QmDexkah37YJwRi1FS-47" value="Leitura e escrita" style="edgeLabel;html=1;align=center;verticalAlign=middle;resizable=0;points=[];" connectable="0" vertex="1" parent="d0QmDexkah37YJwRi1FS-46">
          <mxGeometry x="-0.0267" relative="1" as="geometry">
            <mxPoint as="offset" />
          </mxGeometry>
        </mxCell>
        <mxCell id="d0QmDexkah37YJwRi1FS-48" value="&lt;b&gt;service--notification&lt;/b&gt;&lt;br&gt;Java / Spring Boot" style="rounded=0;whiteSpace=wrap;html=1;fillColor=#dae8fc;strokeColor=#6c8ebf;" vertex="1" parent="1">
          <mxGeometry x="2782" y="920" width="226" height="100" as="geometry" />
        </mxCell>
        <mxCell id="d0QmDexkah37YJwRi1FS-49" style="edgeStyle=orthogonalEdgeStyle;rounded=0;orthogonalLoop=1;jettySize=auto;html=1;dashed=1;" edge="1" parent="1" source="d0QmDexkah37YJwRi1FS-53">
          <mxGeometry relative="1" as="geometry">
            <Array as="points">
              <mxPoint x="2240" y="965" />
              <mxPoint x="2240" y="630" />
            </Array>
            <mxPoint x="2400" y="630" as="targetPoint" />
          </mxGeometry>
        </mxCell>
        <mxCell id="d0QmDexkah37YJwRi1FS-51" style="edgeStyle=orthogonalEdgeStyle;rounded=0;orthogonalLoop=1;jettySize=auto;html=1;dashed=1;exitX=0.5;exitY=1;exitDx=0;exitDy=0;" edge="1" parent="1" source="d0QmDexkah37YJwRi1FS-53" target="d0QmDexkah37YJwRi1FS-61">
          <mxGeometry relative="1" as="geometry">
            <Array as="points" />
          </mxGeometry>
        </mxCell>
        <mxCell id="d0QmDexkah37YJwRi1FS-52" value="Leitura e escrita" style="edgeLabel;html=1;align=center;verticalAlign=middle;resizable=0;points=[];" connectable="0" vertex="1" parent="d0QmDexkah37YJwRi1FS-51">
          <mxGeometry x="0.0433" y="1" relative="1" as="geometry">
            <mxPoint as="offset" />
          </mxGeometry>
        </mxCell>
        <mxCell id="d0QmDexkah37YJwRi1FS-53" value="&lt;b&gt;api--order&lt;/b&gt;&lt;br style=&quot;border-color: var(--border-color);&quot;&gt;Java / Spring Boot" style="rounded=0;whiteSpace=wrap;html=1;fillColor=#dae8fc;strokeColor=#6c8ebf;" vertex="1" parent="1">
          <mxGeometry x="1940" y="915" width="226" height="100" as="geometry" />
        </mxCell>
        <mxCell id="d0QmDexkah37YJwRi1FS-54" style="edgeStyle=orthogonalEdgeStyle;rounded=0;orthogonalLoop=1;jettySize=auto;html=1;dashed=1;" edge="1" parent="1">
          <mxGeometry relative="1" as="geometry">
            <Array as="points">
              <mxPoint x="1250" y="560" />
              <mxPoint x="1250" y="917" />
            </Array>
            <mxPoint x="1540" y="560" as="sourcePoint" />
            <mxPoint x="1250" y="920" as="targetPoint" />
          </mxGeometry>
        </mxCell>
        <mxCell id="d0QmDexkah37YJwRi1FS-55" value="BFF REALIZA CHAMADA AOS MICROSERVIÇOS" style="edgeLabel;html=1;align=center;verticalAlign=middle;resizable=0;points=[];" connectable="0" vertex="1" parent="d0QmDexkah37YJwRi1FS-54">
          <mxGeometry x="-0.9213" y="1" relative="1" as="geometry">
            <mxPoint x="-273" y="189" as="offset" />
          </mxGeometry>
        </mxCell>
        <mxCell id="d0QmDexkah37YJwRi1FS-56" value="(HTTP/ JSON)" style="edgeLabel;html=1;align=center;verticalAlign=middle;resizable=0;points=[];" connectable="0" vertex="1" parent="d0QmDexkah37YJwRi1FS-54">
          <mxGeometry x="-0.8762" y="3" relative="1" as="geometry">
            <mxPoint x="-259" y="167" as="offset" />
          </mxGeometry>
        </mxCell>
        <mxCell id="d0QmDexkah37YJwRi1FS-57" value="&lt;font size=&quot;1&quot; style=&quot;&quot;&gt;&lt;b style=&quot;font-size: 14px;&quot;&gt;EMAIL Integration&lt;/b&gt;&lt;/font&gt;" style="rounded=0;whiteSpace=wrap;html=1;fillColor=#f5f5f5;fontColor=#333333;strokeColor=#666666;" vertex="1" parent="1">
          <mxGeometry x="2780" y="630" width="220" height="90" as="geometry" />
        </mxCell>
        <mxCell id="d0QmDexkah37YJwRi1FS-59" value="&lt;b style=&quot;border-color: var(--border-color);&quot;&gt;USER DB&lt;/b&gt;" style="shape=cylinder3;whiteSpace=wrap;html=1;boundedLbl=1;backgroundOutline=1;size=15;" vertex="1" parent="1">
          <mxGeometry x="1178.75" y="1260" width="140" height="170" as="geometry" />
        </mxCell>
        <mxCell id="d0QmDexkah37YJwRi1FS-60" value="&lt;b style=&quot;border-color: var(--border-color);&quot;&gt;PRODUCT DB&lt;/b&gt;" style="shape=cylinder3;whiteSpace=wrap;html=1;boundedLbl=1;backgroundOutline=1;size=15;" vertex="1" parent="1">
          <mxGeometry x="1584.75" y="1260" width="140" height="170" as="geometry" />
        </mxCell>
        <mxCell id="d0QmDexkah37YJwRi1FS-61" value="&lt;b style=&quot;border-color: var(--border-color);&quot;&gt;ORDER DB&lt;/b&gt;" style="shape=cylinder3;whiteSpace=wrap;html=1;boundedLbl=1;backgroundOutline=1;size=15;" vertex="1" parent="1">
          <mxGeometry x="1983" y="1270" width="140" height="170" as="geometry" />
        </mxCell>
        <mxCell id="d0QmDexkah37YJwRi1FS-62" value="&lt;b style=&quot;border-color: var(--border-color);&quot;&gt;NOTIFICATION DB&lt;/b&gt;" style="shape=cylinder3;whiteSpace=wrap;html=1;boundedLbl=1;backgroundOutline=1;size=15;" vertex="1" parent="1">
          <mxGeometry x="2825" y="1270" width="140" height="170" as="geometry" />
        </mxCell>
        <mxCell id="d0QmDexkah37YJwRi1FS-63" style="edgeStyle=orthogonalEdgeStyle;rounded=0;orthogonalLoop=1;jettySize=auto;html=1;dashed=1;" edge="1" parent="1" source="d0QmDexkah37YJwRi1FS-65" target="d0QmDexkah37YJwRi1FS-66">
          <mxGeometry relative="1" as="geometry" />
        </mxCell>
        <mxCell id="d0QmDexkah37YJwRi1FS-64" style="edgeStyle=orthogonalEdgeStyle;rounded=0;orthogonalLoop=1;jettySize=auto;html=1;dashed=1;" edge="1" parent="1" source="d0QmDexkah37YJwRi1FS-65" target="d0QmDexkah37YJwRi1FS-67">
          <mxGeometry relative="1" as="geometry" />
        </mxCell>
        <mxCell id="d0QmDexkah37YJwRi1FS-65" value="&lt;font style=&quot;font-size: 12px;&quot;&gt;&lt;b&gt;FRONT END&lt;/b&gt;&lt;br&gt;Javascript / Angular&lt;br&gt;&lt;/font&gt;" style="rounded=0;whiteSpace=wrap;html=1;fillColor=#dae8fc;strokeColor=#6c8ebf;" vertex="1" parent="1">
          <mxGeometry x="3608" y="170" width="226" height="100" as="geometry" />
        </mxCell>
        <mxCell id="d0QmDexkah37YJwRi1FS-66" value="&lt;font style=&quot;font-size: 12px;&quot;&gt;&lt;b&gt;MICRO FRONT END ORDER&lt;/b&gt;&lt;br&gt;Javascript / Angular&lt;br&gt;&lt;/font&gt;" style="rounded=0;whiteSpace=wrap;html=1;fillColor=#dae8fc;strokeColor=#6c8ebf;" vertex="1" parent="1">
          <mxGeometry x="3338" y="440" width="226" height="100" as="geometry" />
        </mxCell>
        <mxCell id="d0QmDexkah37YJwRi1FS-67" value="&lt;font style=&quot;font-size: 12px;&quot;&gt;&lt;b style=&quot;border-color: var(--border-color);&quot;&gt;MICRO FRONT END PRODUCT&lt;/b&gt;&lt;br style=&quot;border-color: var(--border-color);&quot;&gt;Javascript / Angular&lt;br&gt;&lt;/font&gt;" style="rounded=0;whiteSpace=wrap;html=1;fillColor=#dae8fc;strokeColor=#6c8ebf;" vertex="1" parent="1">
          <mxGeometry x="3608" y="440" width="226" height="100" as="geometry" />
        </mxCell>
        <mxCell id="d0QmDexkah37YJwRi1FS-68" value="&lt;font style=&quot;font-size: 12px;&quot;&gt;&lt;b style=&quot;border-color: var(--border-color);&quot;&gt;MICRO FRONT END USER&lt;/b&gt;&lt;br style=&quot;border-color: var(--border-color);&quot;&gt;Javascript / Angular&lt;br&gt;&lt;/font&gt;" style="rounded=0;whiteSpace=wrap;html=1;fillColor=#dae8fc;strokeColor=#6c8ebf;" vertex="1" parent="1">
          <mxGeometry x="3878" y="440" width="226" height="100" as="geometry" />
        </mxCell>
        <mxCell id="d0QmDexkah37YJwRi1FS-70" value="&lt;font style=&quot;font-size: 12px;&quot;&gt;&lt;b style=&quot;border-color: var(--border-color);&quot;&gt;BFF&amp;nbsp;&lt;/b&gt;&lt;br style=&quot;border-color: var(--border-color);&quot;&gt;Java / Spring Boot&lt;br&gt;&lt;/font&gt;" style="rounded=0;whiteSpace=wrap;html=1;fillColor=#dae8fc;strokeColor=#6c8ebf;" vertex="1" parent="1">
          <mxGeometry x="3577" y="1470" width="226" height="100" as="geometry" />
        </mxCell>
        <mxCell id="d0QmDexkah37YJwRi1FS-71" style="edgeStyle=orthogonalEdgeStyle;rounded=0;orthogonalLoop=1;jettySize=auto;html=1;" edge="1" parent="1" source="d0QmDexkah37YJwRi1FS-72" target="d0QmDexkah37YJwRi1FS-73">
          <mxGeometry relative="1" as="geometry" />
        </mxCell>
        <mxCell id="d0QmDexkah37YJwRi1FS-198" value="Leitura e escrita" style="edgeLabel;html=1;align=center;verticalAlign=middle;resizable=0;points=[];" connectable="0" vertex="1" parent="d0QmDexkah37YJwRi1FS-71">
          <mxGeometry x="-0.1044" y="1" relative="1" as="geometry">
            <mxPoint y="-1" as="offset" />
          </mxGeometry>
        </mxCell>
        <mxCell id="d0QmDexkah37YJwRi1FS-72" value="&lt;font style=&quot;font-size: 12px;&quot;&gt;&lt;b style=&quot;border-color: var(--border-color);&quot;&gt;CUSTOMER CONTROLLER&lt;/b&gt;&lt;br style=&quot;border-color: var(--border-color);&quot;&gt;Permite criar, editar, deletar e listar clientes.&lt;br&gt;Permite também verificar conta e recuperar senhas.&lt;br&gt;&lt;/font&gt;" style="rounded=0;whiteSpace=wrap;html=1;fillColor=#dae8fc;strokeColor=#6c8ebf;" vertex="1" parent="1">
          <mxGeometry x="3577" y="1654" width="226" height="100" as="geometry" />
        </mxCell>
        <mxCell id="d0QmDexkah37YJwRi1FS-73" value="&lt;b style=&quot;border-color: var(--border-color);&quot;&gt;CUSTOMER DB&lt;/b&gt;" style="shape=cylinder3;whiteSpace=wrap;html=1;boundedLbl=1;backgroundOutline=1;size=15;" vertex="1" parent="1">
          <mxGeometry x="3620" y="1845" width="140" height="170" as="geometry" />
        </mxCell>
        <mxCell id="d0QmDexkah37YJwRi1FS-82" value="" style="rounded=0;whiteSpace=wrap;html=1;fillColor=none;dashed=1;" vertex="1" parent="1">
          <mxGeometry x="3308" y="640" width="846" height="600" as="geometry" />
        </mxCell>
        <mxCell id="d0QmDexkah37YJwRi1FS-83" style="edgeStyle=orthogonalEdgeStyle;rounded=0;orthogonalLoop=1;jettySize=auto;html=1;dashed=1;" edge="1" parent="1" source="d0QmDexkah37YJwRi1FS-86" target="d0QmDexkah37YJwRi1FS-89">
          <mxGeometry relative="1" as="geometry" />
        </mxCell>
        <mxCell id="d0QmDexkah37YJwRi1FS-84" style="edgeStyle=orthogonalEdgeStyle;rounded=0;orthogonalLoop=1;jettySize=auto;html=1;dashed=1;" edge="1" parent="1" source="d0QmDexkah37YJwRi1FS-86">
          <mxGeometry relative="1" as="geometry">
            <mxPoint x="3451" y="950" as="targetPoint" />
          </mxGeometry>
        </mxCell>
        <mxCell id="d0QmDexkah37YJwRi1FS-85" style="edgeStyle=orthogonalEdgeStyle;rounded=0;orthogonalLoop=1;jettySize=auto;html=1;dashed=1;" edge="1" parent="1" source="d0QmDexkah37YJwRi1FS-86" target="d0QmDexkah37YJwRi1FS-88">
          <mxGeometry relative="1" as="geometry" />
        </mxCell>
        <mxCell id="d0QmDexkah37YJwRi1FS-86" value="&lt;font style=&quot;font-size: 12px;&quot;&gt;&lt;b&gt;MOBILE APP&lt;/b&gt;&lt;br&gt;Dart / Flutter&lt;br&gt;&lt;/font&gt;" style="rounded=0;whiteSpace=wrap;html=1;fillColor=#dae8fc;strokeColor=#6c8ebf;" vertex="1" parent="1">
          <mxGeometry x="3608" y="680" width="226" height="100" as="geometry" />
        </mxCell>
        <mxCell id="d0QmDexkah37YJwRi1FS-87" value="&lt;font style=&quot;font-size: 12px;&quot;&gt;&lt;b&gt;MICRO FRONT END ORDER&lt;/b&gt;&lt;br&gt;Dart / Flutter&lt;br&gt;&lt;/font&gt;" style="rounded=0;whiteSpace=wrap;html=1;fillColor=#dae8fc;strokeColor=#6c8ebf;" vertex="1" parent="1">
          <mxGeometry x="3343" y="950" width="226" height="100" as="geometry" />
        </mxCell>
        <mxCell id="d0QmDexkah37YJwRi1FS-88" value="&lt;font style=&quot;font-size: 12px;&quot;&gt;&lt;b style=&quot;border-color: var(--border-color);&quot;&gt;MICRO FRONT END PRODUCT&lt;/b&gt;&lt;br style=&quot;border-color: var(--border-color);&quot;&gt;Dart / Flutter&lt;br&gt;&lt;/font&gt;" style="rounded=0;whiteSpace=wrap;html=1;fillColor=#dae8fc;strokeColor=#6c8ebf;" vertex="1" parent="1">
          <mxGeometry x="3608" y="950" width="226" height="100" as="geometry" />
        </mxCell>
        <mxCell id="d0QmDexkah37YJwRi1FS-89" value="&lt;font style=&quot;font-size: 12px;&quot;&gt;&lt;b style=&quot;border-color: var(--border-color);&quot;&gt;MICRO FRONT END CUSTOMER&lt;/b&gt;&lt;br style=&quot;border-color: var(--border-color);&quot;&gt;Dart / Flutter&lt;br&gt;&lt;/font&gt;" style="rounded=0;whiteSpace=wrap;html=1;fillColor=#dae8fc;strokeColor=#6c8ebf;" vertex="1" parent="1">
          <mxGeometry x="3878" y="950" width="226" height="100" as="geometry" />
        </mxCell>
        <mxCell id="d0QmDexkah37YJwRi1FS-94" style="edgeStyle=orthogonalEdgeStyle;rounded=0;orthogonalLoop=1;jettySize=auto;html=1;dashed=1;exitX=0.5;exitY=1;exitDx=0;exitDy=0;entryX=0.5;entryY=0;entryDx=0;entryDy=0;" edge="1" parent="1" source="d0QmDexkah37YJwRi1FS-32" target="d0QmDexkah37YJwRi1FS-43">
          <mxGeometry relative="1" as="geometry">
            <Array as="points">
              <mxPoint x="1655" y="920" />
            </Array>
            <mxPoint x="1810" y="560" as="sourcePoint" />
            <mxPoint x="1520" y="920" as="targetPoint" />
          </mxGeometry>
        </mxCell>
        <mxCell id="d0QmDexkah37YJwRi1FS-97" value="(HTTP/ JSON)" style="edgeLabel;html=1;align=center;verticalAlign=middle;resizable=0;points=[];" connectable="0" vertex="1" parent="1">
          <mxGeometry x="1649.9999999999995" y="730.003333333333" as="geometry" />
        </mxCell>
        <mxCell id="d0QmDexkah37YJwRi1FS-98" value="BFF REALIZA CHAMADA AOS MICROSERVIÇOS" style="edgeLabel;html=1;align=center;verticalAlign=middle;resizable=0;points=[];" connectable="0" vertex="1" parent="1">
          <mxGeometry x="1654.7544444444447" y="750" as="geometry" />
        </mxCell>
        <mxCell id="d0QmDexkah37YJwRi1FS-99" style="edgeStyle=orthogonalEdgeStyle;rounded=0;orthogonalLoop=1;jettySize=auto;html=1;dashed=1;exitX=1;exitY=0.5;exitDx=0;exitDy=0;entryX=0.5;entryY=0;entryDx=0;entryDy=0;" edge="1" parent="1" source="d0QmDexkah37YJwRi1FS-32" target="d0QmDexkah37YJwRi1FS-53">
          <mxGeometry relative="1" as="geometry">
            <Array as="points">
              <mxPoint x="2053" y="560" />
            </Array>
            <mxPoint x="1832" y="555" as="sourcePoint" />
            <mxPoint x="1810" y="915" as="targetPoint" />
          </mxGeometry>
        </mxCell>
        <mxCell id="d0QmDexkah37YJwRi1FS-100" value="BFF REALIZA CHAMADA AOS MICROSERVIÇOS" style="edgeLabel;html=1;align=center;verticalAlign=middle;resizable=0;points=[];" connectable="0" vertex="1" parent="d0QmDexkah37YJwRi1FS-99">
          <mxGeometry x="-0.9213" y="1" relative="1" as="geometry">
            <mxPoint x="258" y="191" as="offset" />
          </mxGeometry>
        </mxCell>
        <mxCell id="d0QmDexkah37YJwRi1FS-103" value="Notification MQ" style="swimlane;fontStyle=0;childLayout=stackLayout;horizontal=1;startSize=50;fillColor=none;horizontalStack=0;resizeParent=1;resizeParentMax=0;resizeLast=0;collapsible=1;marginBottom=0;html=1;" vertex="1" parent="1">
          <mxGeometry x="2390" y="1270" width="190" height="170" as="geometry" />
        </mxCell>
        <mxCell id="d0QmDexkah37YJwRi1FS-107" style="edgeStyle=orthogonalEdgeStyle;rounded=0;orthogonalLoop=1;jettySize=auto;html=1;dashed=1;exitX=0.992;exitY=0.583;exitDx=0;exitDy=0;exitPerimeter=0;entryX=0.383;entryY=0.026;entryDx=0;entryDy=0;entryPerimeter=0;" edge="1" parent="1" source="d0QmDexkah37YJwRi1FS-53" target="d0QmDexkah37YJwRi1FS-103">
          <mxGeometry relative="1" as="geometry">
            <mxPoint x="2170" y="975" as="sourcePoint" />
            <mxPoint x="2370" y="975" as="targetPoint" />
            <Array as="points">
              <mxPoint x="2164" y="970" />
              <mxPoint x="2463" y="970" />
            </Array>
          </mxGeometry>
        </mxCell>
        <mxCell id="d0QmDexkah37YJwRi1FS-109" style="edgeStyle=orthogonalEdgeStyle;rounded=0;orthogonalLoop=1;jettySize=auto;html=1;dashed=1;exitX=0;exitY=0.5;exitDx=0;exitDy=0;entryX=0.579;entryY=0;entryDx=0;entryDy=0;entryPerimeter=0;" edge="1" parent="1" source="d0QmDexkah37YJwRi1FS-48" target="d0QmDexkah37YJwRi1FS-103">
          <mxGeometry relative="1" as="geometry">
            <mxPoint x="2174" y="983" as="sourcePoint" />
            <mxPoint x="2380" y="985" as="targetPoint" />
            <Array as="points">
              <mxPoint x="2500" y="970" />
            </Array>
          </mxGeometry>
        </mxCell>
        <mxCell id="d0QmDexkah37YJwRi1FS-111" value="(HTTP/ JSON)" style="edgeLabel;html=1;align=center;verticalAlign=middle;resizable=0;points=[];" connectable="0" vertex="1" parent="1">
          <mxGeometry x="2330.000552850176" y="959.9973804651665" as="geometry" />
        </mxCell>
        <mxCell id="d0QmDexkah37YJwRi1FS-112" value="ADICIONA MENSAGEM NA FILA" style="edgeLabel;html=1;align=center;verticalAlign=middle;resizable=0;points=[];" connectable="0" vertex="1" parent="1">
          <mxGeometry x="2330.003341975059" y="980.0046613311906" as="geometry" />
        </mxCell>
        <mxCell id="d0QmDexkah37YJwRi1FS-113" value="(HTTP/ JSON)" style="edgeLabel;html=1;align=center;verticalAlign=middle;resizable=0;points=[];" connectable="0" vertex="1" parent="1">
          <mxGeometry x="2680.000552850176" y="959.9973804651665" as="geometry" />
        </mxCell>
        <mxCell id="d0QmDexkah37YJwRi1FS-114" value="CONSOME MENSAGEM NA FILA" style="edgeLabel;html=1;align=center;verticalAlign=middle;resizable=0;points=[];" connectable="0" vertex="1" parent="1">
          <mxGeometry x="2330.003341975059" y="1000.0046613311906" as="geometry">
            <mxPoint x="339" y="-17" as="offset" />
          </mxGeometry>
        </mxCell>
        <mxCell id="d0QmDexkah37YJwRi1FS-115" style="edgeStyle=orthogonalEdgeStyle;rounded=0;orthogonalLoop=1;jettySize=auto;html=1;dashed=1;entryX=0.5;entryY=1;entryDx=0;entryDy=0;exitX=0.5;exitY=0;exitDx=0;exitDy=0;" edge="1" parent="1">
          <mxGeometry relative="1" as="geometry">
            <mxPoint x="2899.0000000000005" y="920" as="sourcePoint" />
            <mxPoint x="2894" y="720" as="targetPoint" />
            <Array as="points">
              <mxPoint x="2894" y="920" />
            </Array>
          </mxGeometry>
        </mxCell>
        <mxCell id="d0QmDexkah37YJwRi1FS-116" value="Envia Email" style="edgeLabel;html=1;align=center;verticalAlign=middle;resizable=0;points=[];" connectable="0" vertex="1" parent="d0QmDexkah37YJwRi1FS-115">
          <mxGeometry x="-0.0267" relative="1" as="geometry">
            <mxPoint as="offset" />
          </mxGeometry>
        </mxCell>
        <mxCell id="d0QmDexkah37YJwRi1FS-120" value="" style="rounded=0;whiteSpace=wrap;html=1;fillColor=none;dashed=1;" vertex="1" parent="1">
          <mxGeometry x="3460" y="2120" width="490" height="660" as="geometry" />
        </mxCell>
        <mxCell id="d0QmDexkah37YJwRi1FS-121" value="&lt;font style=&quot;font-size: 12px;&quot;&gt;&lt;b style=&quot;border-color: var(--border-color);&quot;&gt;BFF&amp;nbsp;&lt;/b&gt;&lt;br style=&quot;border-color: var(--border-color);&quot;&gt;Java / Spring Boot&lt;br&gt;&lt;/font&gt;" style="rounded=0;whiteSpace=wrap;html=1;fillColor=#dae8fc;strokeColor=#6c8ebf;" vertex="1" parent="1">
          <mxGeometry x="3590.5" y="2160" width="226" height="100" as="geometry" />
        </mxCell>
        <mxCell id="d0QmDexkah37YJwRi1FS-122" value="&lt;font style=&quot;font-size: 12px;&quot;&gt;&lt;b style=&quot;border-color: var(--border-color);&quot;&gt;PRODUCT CONTROLLER&lt;/b&gt;&lt;br style=&quot;border-color: var(--border-color);&quot;&gt;Permite carregar e listar produtos.&lt;br&gt;&lt;/font&gt;" style="rounded=0;whiteSpace=wrap;html=1;fillColor=#dae8fc;strokeColor=#6c8ebf;" vertex="1" parent="1">
          <mxGeometry x="3590" y="2350" width="226" height="100" as="geometry" />
        </mxCell>
        <mxCell id="d0QmDexkah37YJwRi1FS-123" value="&lt;b style=&quot;border-color: var(--border-color);&quot;&gt;PRODUCT DB&lt;/b&gt;" style="shape=cylinder3;whiteSpace=wrap;html=1;boundedLbl=1;backgroundOutline=1;size=15;" vertex="1" parent="1">
          <mxGeometry x="3629.5" y="2570" width="140" height="170" as="geometry" />
        </mxCell>
        <mxCell id="d0QmDexkah37YJwRi1FS-133" style="edgeStyle=orthogonalEdgeStyle;rounded=0;orthogonalLoop=1;jettySize=auto;html=1;entryX=0.5;entryY=0;entryDx=0;entryDy=0;entryPerimeter=0;" edge="1" parent="1" target="d0QmDexkah37YJwRi1FS-123">
          <mxGeometry relative="1" as="geometry">
            <mxPoint x="3700" y="2450" as="sourcePoint" />
            <mxPoint x="3699.79" y="2527" as="targetPoint" />
          </mxGeometry>
        </mxCell>
        <mxCell id="d0QmDexkah37YJwRi1FS-199" value="Leitura" style="edgeLabel;html=1;align=center;verticalAlign=middle;resizable=0;points=[];" connectable="0" vertex="1" parent="d0QmDexkah37YJwRi1FS-133">
          <mxGeometry x="0.0913" relative="1" as="geometry">
            <mxPoint as="offset" />
          </mxGeometry>
        </mxCell>
        <mxCell id="d0QmDexkah37YJwRi1FS-138" value="" style="rounded=0;whiteSpace=wrap;html=1;fillColor=none;dashed=1;" vertex="1" parent="1">
          <mxGeometry x="1144" y="1837" width="1240" height="1100" as="geometry" />
        </mxCell>
        <mxCell id="d0QmDexkah37YJwRi1FS-139" value="&lt;font style=&quot;font-size: 12px;&quot;&gt;&lt;b style=&quot;border-color: var(--border-color);&quot;&gt;BFF&amp;nbsp;&lt;/b&gt;&lt;br style=&quot;border-color: var(--border-color);&quot;&gt;Java / Spring Boot&lt;br&gt;&lt;/font&gt;" style="rounded=0;whiteSpace=wrap;html=1;fillColor=#dae8fc;strokeColor=#6c8ebf;" vertex="1" parent="1">
          <mxGeometry x="1589" y="1880" width="226" height="100" as="geometry" />
        </mxCell>
        <mxCell id="d0QmDexkah37YJwRi1FS-140" value="&lt;font style=&quot;font-size: 12px;&quot;&gt;&lt;b style=&quot;border-color: var(--border-color);&quot;&gt;PRODUCT CONTROLLER&lt;/b&gt;&lt;br style=&quot;border-color: var(--border-color);&quot;&gt;Permite ober o id do produto.&lt;br&gt;&lt;/font&gt;" style="rounded=0;whiteSpace=wrap;html=1;fillColor=#dae8fc;strokeColor=#6c8ebf;" vertex="1" parent="1">
          <mxGeometry x="1250" y="2337" width="226" height="100" as="geometry" />
        </mxCell>
        <mxCell id="d0QmDexkah37YJwRi1FS-141" value="&lt;b style=&quot;border-color: var(--border-color);&quot;&gt;PRODUCT DB&lt;/b&gt;" style="shape=cylinder3;whiteSpace=wrap;html=1;boundedLbl=1;backgroundOutline=1;size=15;" vertex="1" parent="1">
          <mxGeometry x="1293" y="2665" width="140" height="170" as="geometry" />
        </mxCell>
        <mxCell id="d0QmDexkah37YJwRi1FS-144" value="&lt;font style=&quot;font-size: 12px;&quot;&gt;&lt;b style=&quot;border-color: var(--border-color);&quot;&gt;ORDER CONTROLLER&lt;/b&gt;&lt;br style=&quot;border-color: var(--border-color);&quot;&gt;Permite ober o id do produto.&lt;br&gt;&lt;/font&gt;" style="rounded=0;whiteSpace=wrap;html=1;fillColor=#dae8fc;strokeColor=#6c8ebf;" vertex="1" parent="1">
          <mxGeometry x="1589" y="2120" width="226" height="100" as="geometry" />
        </mxCell>
        <mxCell id="d0QmDexkah37YJwRi1FS-146" value="&lt;font style=&quot;font-size: 12px;&quot;&gt;&lt;b style=&quot;border-color: var(--border-color);&quot;&gt;CUSTOMER CONTROLLER&lt;/b&gt;&lt;br style=&quot;border-color: var(--border-color);&quot;&gt;Permite ober o id do cliente.&lt;br&gt;&lt;/font&gt;" style="rounded=0;whiteSpace=wrap;html=1;fillColor=#dae8fc;strokeColor=#6c8ebf;" vertex="1" parent="1">
          <mxGeometry x="2090" y="2337" width="226" height="100" as="geometry" />
        </mxCell>
        <mxCell id="d0QmDexkah37YJwRi1FS-165" style="edgeStyle=orthogonalEdgeStyle;rounded=0;orthogonalLoop=1;jettySize=auto;html=1;exitX=0.5;exitY=0;exitDx=0;exitDy=0;exitPerimeter=0;entryX=0.5;entryY=1;entryDx=0;entryDy=0;" edge="1" parent="1" source="d0QmDexkah37YJwRi1FS-141" target="d0QmDexkah37YJwRi1FS-140">
          <mxGeometry relative="1" as="geometry">
            <Array as="points" />
          </mxGeometry>
        </mxCell>
        <mxCell id="d0QmDexkah37YJwRi1FS-147" value="&lt;b style=&quot;border-color: var(--border-color);&quot;&gt;CUSTOMER DB&lt;/b&gt;" style="shape=cylinder3;whiteSpace=wrap;html=1;boundedLbl=1;backgroundOutline=1;size=15;" vertex="1" parent="1">
          <mxGeometry x="2133" y="2660" width="140" height="180" as="geometry" />
        </mxCell>
        <mxCell id="d0QmDexkah37YJwRi1FS-151" style="edgeStyle=orthogonalEdgeStyle;rounded=0;orthogonalLoop=1;jettySize=auto;html=1;exitX=0.5;exitY=0;exitDx=0;exitDy=0;" edge="1" parent="1" source="d0QmDexkah37YJwRi1FS-140">
          <mxGeometry relative="1" as="geometry">
            <mxPoint x="1712" y="1990" as="sourcePoint" />
            <mxPoint x="1680" y="2220" as="targetPoint" />
            <Array as="points">
              <mxPoint x="1360" y="2337" />
              <mxPoint x="1360" y="2270" />
              <mxPoint x="1680" y="2270" />
              <mxPoint x="1680" y="2220" />
            </Array>
          </mxGeometry>
        </mxCell>
        <mxCell id="d0QmDexkah37YJwRi1FS-152" style="edgeStyle=orthogonalEdgeStyle;rounded=0;orthogonalLoop=1;jettySize=auto;html=1;exitX=0.5;exitY=0;exitDx=0;exitDy=0;" edge="1" parent="1" source="d0QmDexkah37YJwRi1FS-146">
          <mxGeometry relative="1" as="geometry">
            <mxPoint x="1403" y="2337" as="sourcePoint" />
            <mxPoint x="1770" y="2220" as="targetPoint" />
            <Array as="points">
              <mxPoint x="2203" y="2270" />
              <mxPoint x="1770" y="2270" />
              <mxPoint x="1770" y="2220" />
            </Array>
          </mxGeometry>
        </mxCell>
        <mxCell id="d0QmDexkah37YJwRi1FS-157" value="Notification MQ" style="swimlane;fontStyle=0;childLayout=stackLayout;horizontal=1;startSize=40;fillColor=none;horizontalStack=0;resizeParent=1;resizeParentMax=0;resizeLast=0;collapsible=1;marginBottom=0;html=1;" vertex="1" parent="1">
          <mxGeometry x="1615" y="2338" width="190" height="100" as="geometry" />
        </mxCell>
        <mxCell id="d0QmDexkah37YJwRi1FS-162" style="edgeStyle=orthogonalEdgeStyle;rounded=0;orthogonalLoop=1;jettySize=auto;html=1;" edge="1" parent="1">
          <mxGeometry relative="1" as="geometry">
            <mxPoint x="1700.8899999999999" y="2235" as="sourcePoint" />
            <mxPoint x="1701" y="2340" as="targetPoint" />
            <Array as="points">
              <mxPoint x="1701.1399999999999" y="2218" />
              <mxPoint x="1701.1399999999999" y="2218" />
            </Array>
          </mxGeometry>
        </mxCell>
        <mxCell id="d0QmDexkah37YJwRi1FS-163" value="&lt;b style=&quot;border-color: var(--border-color);&quot;&gt;NOTIFICATION DB&lt;/b&gt;" style="shape=cylinder3;whiteSpace=wrap;html=1;boundedLbl=1;backgroundOutline=1;size=15;" vertex="1" parent="1">
          <mxGeometry x="1640" y="2670" width="140" height="170" as="geometry" />
        </mxCell>
        <mxCell id="d0QmDexkah37YJwRi1FS-164" value="&lt;font style=&quot;font-size: 12px;&quot;&gt;&lt;b style=&quot;border-color: var(--border-color);&quot;&gt;NOTIFICATION SERVICE&lt;/b&gt;&lt;br style=&quot;border-color: var(--border-color);&quot;&gt;Obtém mensagem na Fila e Envia Email&lt;br&gt;&lt;/font&gt;" style="rounded=0;whiteSpace=wrap;html=1;fillColor=#dae8fc;strokeColor=#6c8ebf;" vertex="1" parent="1">
          <mxGeometry x="1597" y="2500" width="226" height="100" as="geometry" />
        </mxCell>
        <mxCell id="d0QmDexkah37YJwRi1FS-166" style="edgeStyle=orthogonalEdgeStyle;rounded=0;orthogonalLoop=1;jettySize=auto;html=1;entryX=0.5;entryY=1;entryDx=0;entryDy=0;exitX=0.5;exitY=0;exitDx=0;exitDy=0;exitPerimeter=0;" edge="1" parent="1" source="d0QmDexkah37YJwRi1FS-147" target="d0QmDexkah37YJwRi1FS-146">
          <mxGeometry relative="1" as="geometry">
            <mxPoint x="2068" y="2641" as="sourcePoint" />
            <mxPoint x="2068" y="2438" as="targetPoint" />
            <Array as="points">
              <mxPoint x="2203" y="2610" />
              <mxPoint x="2203" y="2610" />
            </Array>
          </mxGeometry>
        </mxCell>
        <mxCell id="d0QmDexkah37YJwRi1FS-167" style="edgeStyle=orthogonalEdgeStyle;rounded=0;orthogonalLoop=1;jettySize=auto;html=1;entryX=0.5;entryY=0;entryDx=0;entryDy=0;exitX=0.5;exitY=1;exitDx=0;exitDy=0;" edge="1" parent="1" target="d0QmDexkah37YJwRi1FS-164">
          <mxGeometry relative="1" as="geometry">
            <mxPoint x="1709.38" y="2440" as="sourcePoint" />
            <mxPoint x="1709.38" y="2490" as="targetPoint" />
          </mxGeometry>
        </mxCell>
        <mxCell id="d0QmDexkah37YJwRi1FS-170" value="(HTTP/ JSON)" style="edgeLabel;html=1;align=center;verticalAlign=middle;resizable=0;points=[];" connectable="0" vertex="1" parent="1">
          <mxGeometry x="1690.2499999999995" y="2030.003333333333" as="geometry">
            <mxPoint x="10" y="3" as="offset" />
          </mxGeometry>
        </mxCell>
        <mxCell id="d0QmDexkah37YJwRi1FS-171" value="(HTTP/ JSON)" style="edgeLabel;html=1;align=center;verticalAlign=middle;resizable=0;points=[];" connectable="0" vertex="1" parent="1">
          <mxGeometry x="1512.9999999999995" y="2295.003333333333" as="geometry">
            <mxPoint x="371" y="-11" as="offset" />
          </mxGeometry>
        </mxCell>
        <mxCell id="d0QmDexkah37YJwRi1FS-172" value="(HTTP/ JSON)" style="edgeLabel;html=1;align=center;verticalAlign=middle;resizable=0;points=[];" connectable="0" vertex="1" parent="1">
          <mxGeometry x="1329.9999999999995" y="2320.003333333333" as="geometry">
            <mxPoint x="371" y="-11" as="offset" />
          </mxGeometry>
        </mxCell>
        <mxCell id="d0QmDexkah37YJwRi1FS-173" value="(HTTP/ JSON)" style="edgeLabel;html=1;align=center;verticalAlign=middle;resizable=0;points=[];" connectable="0" vertex="1" parent="1">
          <mxGeometry x="1319.9999999999995" y="2480.003333333333" as="geometry">
            <mxPoint x="371" y="-11" as="offset" />
          </mxGeometry>
        </mxCell>
        <mxCell id="d0QmDexkah37YJwRi1FS-174" value="Leitura" style="edgeLabel;html=1;align=center;verticalAlign=middle;resizable=0;points=[];" connectable="0" vertex="1" parent="1">
          <mxGeometry x="1361.75" y="2560" as="geometry" />
        </mxCell>
        <mxCell id="d0QmDexkah37YJwRi1FS-175" value="Leitura e escrita" style="edgeLabel;html=1;align=center;verticalAlign=middle;resizable=0;points=[];" connectable="0" vertex="1" parent="1">
          <mxGeometry x="1710" y="2630" as="geometry" />
        </mxCell>
        <mxCell id="d0QmDexkah37YJwRi1FS-176" value="Leitura" style="edgeLabel;html=1;align=center;verticalAlign=middle;resizable=0;points=[];" connectable="0" vertex="1" parent="1">
          <mxGeometry x="2067" y="2530" as="geometry" />
        </mxCell>
        <mxCell id="d0QmDexkah37YJwRi1FS-177" value="(HTTP/ JSON)" style="edgeLabel;html=1;align=center;verticalAlign=middle;resizable=0;points=[];" connectable="0" vertex="1" parent="1">
          <mxGeometry x="3089.9999999999995" y="340.0033333333331" as="geometry">
            <mxPoint x="365" y="-8" as="offset" />
          </mxGeometry>
        </mxCell>
        <mxCell id="d0QmDexkah37YJwRi1FS-178" value="(HTTP/ JSON)" style="edgeLabel;html=1;align=center;verticalAlign=middle;resizable=0;points=[];" connectable="0" vertex="1" parent="1">
          <mxGeometry x="1089.9999999999995" y="2295.003333333333" as="geometry">
            <mxPoint x="371" y="-11" as="offset" />
          </mxGeometry>
        </mxCell>
        <mxCell id="d0QmDexkah37YJwRi1FS-179" value="(HTTP/ JSON)" style="edgeLabel;html=1;align=center;verticalAlign=middle;resizable=0;points=[];" connectable="0" vertex="1" parent="1">
          <mxGeometry x="3299.9999999999995" y="350.0033333333331" as="geometry">
            <mxPoint x="423" y="-20" as="offset" />
          </mxGeometry>
        </mxCell>
        <mxCell id="d0QmDexkah37YJwRi1FS-180" value="(HTTP/ JSON)" style="edgeLabel;html=1;align=center;verticalAlign=middle;resizable=0;points=[];" connectable="0" vertex="1" parent="1">
          <mxGeometry x="3619.9999999999995" y="340.0033333333331" as="geometry">
            <mxPoint x="365" y="-8" as="offset" />
          </mxGeometry>
        </mxCell>
        <mxCell id="d0QmDexkah37YJwRi1FS-181" value="(HTTP/ JSON)" style="edgeLabel;html=1;align=center;verticalAlign=middle;resizable=0;points=[];" connectable="0" vertex="1" parent="1">
          <mxGeometry x="3089.9999999999995" y="820.0033333333331" as="geometry">
            <mxPoint x="365" y="-8" as="offset" />
          </mxGeometry>
        </mxCell>
        <mxCell id="d0QmDexkah37YJwRi1FS-182" value="(HTTP/ JSON)" style="edgeLabel;html=1;align=center;verticalAlign=middle;resizable=0;points=[];" connectable="0" vertex="1" parent="1">
          <mxGeometry x="3359.9999999999995" y="820.0033333333331" as="geometry">
            <mxPoint x="365" y="-8" as="offset" />
          </mxGeometry>
        </mxCell>
        <mxCell id="d0QmDexkah37YJwRi1FS-183" value="(HTTP/ JSON)" style="edgeLabel;html=1;align=center;verticalAlign=middle;resizable=0;points=[];" connectable="0" vertex="1" parent="1">
          <mxGeometry x="3619.9999999999995" y="820.0033333333331" as="geometry">
            <mxPoint x="365" y="-8" as="offset" />
          </mxGeometry>
        </mxCell>
        <mxCell id="d0QmDexkah37YJwRi1FS-188" value="&lt;font style=&quot;font-size: 12px;&quot;&gt;&lt;b style=&quot;border-color: var(--border-color);&quot;&gt;BFF&amp;nbsp;&lt;/b&gt;&lt;br style=&quot;border-color: var(--border-color);&quot;&gt;Java / Spring Boot&lt;br&gt;&lt;/font&gt;" style="rounded=0;whiteSpace=wrap;html=1;fillColor=#dae8fc;strokeColor=#6c8ebf;" vertex="1" parent="1">
          <mxGeometry x="3608" y="1120" width="226" height="100" as="geometry" />
        </mxCell>
        <mxCell id="d0QmDexkah37YJwRi1FS-189" style="edgeStyle=orthogonalEdgeStyle;rounded=0;orthogonalLoop=1;jettySize=auto;html=1;dashed=1;exitX=0.5;exitY=1;exitDx=0;exitDy=0;" edge="1" parent="1" source="d0QmDexkah37YJwRi1FS-87">
          <mxGeometry relative="1" as="geometry">
            <mxPoint x="3299" y="1200" as="sourcePoint" />
            <mxPoint x="3690" y="1120" as="targetPoint" />
            <Array as="points">
              <mxPoint x="3456" y="1080" />
              <mxPoint x="3690" y="1080" />
              <mxPoint x="3690" y="1120" />
            </Array>
          </mxGeometry>
        </mxCell>
        <mxCell id="d0QmDexkah37YJwRi1FS-190" style="edgeStyle=orthogonalEdgeStyle;rounded=0;orthogonalLoop=1;jettySize=auto;html=1;dashed=1;exitX=0.5;exitY=1;exitDx=0;exitDy=0;entryX=0.5;entryY=0;entryDx=0;entryDy=0;" edge="1" parent="1" source="d0QmDexkah37YJwRi1FS-88" target="d0QmDexkah37YJwRi1FS-188">
          <mxGeometry relative="1" as="geometry">
            <mxPoint x="3466" y="1060" as="sourcePoint" />
            <mxPoint x="3700" y="1130" as="targetPoint" />
            <Array as="points">
              <mxPoint x="3721" y="1090" />
              <mxPoint x="3720" y="1120" />
            </Array>
          </mxGeometry>
        </mxCell>
        <mxCell id="d0QmDexkah37YJwRi1FS-193" style="edgeStyle=orthogonalEdgeStyle;rounded=0;orthogonalLoop=1;jettySize=auto;html=1;dashed=1;exitX=0.5;exitY=1;exitDx=0;exitDy=0;entryX=0.673;entryY=0;entryDx=0;entryDy=0;entryPerimeter=0;" edge="1" parent="1" source="d0QmDexkah37YJwRi1FS-89" target="d0QmDexkah37YJwRi1FS-188">
          <mxGeometry relative="1" as="geometry">
            <mxPoint x="3731" y="1060" as="sourcePoint" />
            <mxPoint x="3731" y="1130" as="targetPoint" />
            <Array as="points">
              <mxPoint x="3991" y="1080" />
              <mxPoint x="3760" y="1080" />
            </Array>
          </mxGeometry>
        </mxCell>
        <mxCell id="d0QmDexkah37YJwRi1FS-194" value="(HTTP/ JSON)" style="edgeLabel;html=1;align=center;verticalAlign=middle;resizable=0;points=[];" connectable="0" vertex="1" parent="1">
          <mxGeometry x="3179.9999999999995" y="1100.003333333333" as="geometry">
            <mxPoint x="365" y="-8" as="offset" />
          </mxGeometry>
        </mxCell>
        <mxCell id="d0QmDexkah37YJwRi1FS-195" value="(HTTP/ JSON)" style="edgeLabel;html=1;align=center;verticalAlign=middle;resizable=0;points=[];" connectable="0" vertex="1" parent="1">
          <mxGeometry x="3359.9999999999995" y="1070.003333333333" as="geometry">
            <mxPoint x="365" y="-8" as="offset" />
          </mxGeometry>
        </mxCell>
        <mxCell id="d0QmDexkah37YJwRi1FS-196" value="(HTTP/ JSON)" style="edgeLabel;html=1;align=center;verticalAlign=middle;resizable=0;points=[];" connectable="0" vertex="1" parent="1">
          <mxGeometry x="3539.9999999999995" y="1100.003333333333" as="geometry">
            <mxPoint x="365" y="-8" as="offset" />
          </mxGeometry>
        </mxCell>
        <mxCell id="d0QmDexkah37YJwRi1FS-197" value="(HTTP/ JSON)" style="edgeLabel;html=1;align=center;verticalAlign=middle;resizable=0;points=[];" connectable="0" vertex="1" parent="1">
          <mxGeometry x="3329.9999999999995" y="1620.003333333333" as="geometry">
            <mxPoint x="365" y="-8" as="offset" />
          </mxGeometry>
        </mxCell>
        <mxCell id="d0QmDexkah37YJwRi1FS-205" value="(HTTP/ JSON)" style="edgeLabel;html=1;align=center;verticalAlign=middle;resizable=0;points=[];" connectable="0" vertex="1" parent="1">
          <mxGeometry x="3342.9999999999995" y="2310.003333333333" as="geometry">
            <mxPoint x="365" y="-8" as="offset" />
          </mxGeometry>
        </mxCell>
        <mxCell id="d0QmDexkah37YJwRi1FS-206" value="" style="endArrow=classic;startArrow=classic;html=1;rounded=0;exitX=0.433;exitY=0.022;exitDx=0;exitDy=0;exitPerimeter=0;entryX=0.437;entryY=1.004;entryDx=0;entryDy=0;entryPerimeter=0;" edge="1" parent="1">
          <mxGeometry width="50" height="50" relative="1" as="geometry">
            <mxPoint x="3702.228" y="2350" as="sourcePoint" />
            <mxPoint x="3703.6319999999996" y="2258.2000000000007" as="targetPoint" />
          </mxGeometry>
        </mxCell>
        <mxCell id="d0QmDexkah37YJwRi1FS-207" value="" style="endArrow=classic;startArrow=classic;html=1;rounded=0;exitX=0.5;exitY=1;exitDx=0;exitDy=0;entryX=0.5;entryY=0;entryDx=0;entryDy=0;" edge="1" parent="1" source="d0QmDexkah37YJwRi1FS-70" target="d0QmDexkah37YJwRi1FS-72">
          <mxGeometry width="50" height="50" relative="1" as="geometry">
            <mxPoint x="4260" y="1820" as="sourcePoint" />
            <mxPoint x="4310" y="1770" as="targetPoint" />
          </mxGeometry>
        </mxCell>
        <mxCell id="d0QmDexkah37YJwRi1FS-208" value="" style="endArrow=classic;startArrow=classic;html=1;rounded=0;entryX=0.5;entryY=1;entryDx=0;entryDy=0;exitX=0.5;exitY=0;exitDx=0;exitDy=0;" edge="1" parent="1" source="d0QmDexkah37YJwRi1FS-144" target="d0QmDexkah37YJwRi1FS-139">
          <mxGeometry width="50" height="50" relative="1" as="geometry">
            <mxPoint x="2090" y="2370" as="sourcePoint" />
            <mxPoint x="2140" y="2320" as="targetPoint" />
          </mxGeometry>
        </mxCell>
        <mxCell id="d0QmDexkah37YJwRi1FS-210" value="" style="endArrow=classic;startArrow=classic;html=1;rounded=0;exitX=0.5;exitY=0;exitDx=0;exitDy=0;exitPerimeter=0;" edge="1" parent="1" source="d0QmDexkah37YJwRi1FS-163">
          <mxGeometry width="50" height="50" relative="1" as="geometry">
            <mxPoint x="1665.25" y="2650" as="sourcePoint" />
            <mxPoint x="1710" y="2600" as="targetPoint" />
          </mxGeometry>
        </mxCell>
        <mxCell id="IqUyI6zmpPItJnHVaUlp-1" value="Payment MQ" style="swimlane;fontStyle=0;childLayout=stackLayout;horizontal=1;startSize=50;fillColor=none;horizontalStack=0;resizeParent=1;resizeParentMax=0;resizeLast=0;collapsible=1;marginBottom=0;html=1;" vertex="1" parent="1">
          <mxGeometry x="2400" y="550" width="190" height="170" as="geometry" />
        </mxCell>
        <mxCell id="IqUyI6zmpPItJnHVaUlp-2" value="(HTTP/ JSON)" style="edgeLabel;html=1;align=center;verticalAlign=middle;resizable=0;points=[];" connectable="0" vertex="1" parent="1">
          <mxGeometry x="2340.000552850176" y="969.9973804651665" as="geometry">
            <mxPoint x="-103" y="-183" as="offset" />
          </mxGeometry>
        </mxCell>
        <mxCell id="IqUyI6zmpPItJnHVaUlp-3" value="ADICIONA MENSAGEM NA FILA" style="edgeLabel;html=1;align=center;verticalAlign=middle;resizable=0;points=[];" connectable="0" vertex="1" parent="1">
          <mxGeometry x="2250.003341975059" y="810.0046613311906" as="geometry" />
        </mxCell>
        <mxCell id="IqUyI6zmpPItJnHVaUlp-5" value="&lt;b&gt;service--payment&lt;/b&gt;&lt;br style=&quot;border-color: var(--border-color);&quot;&gt;Java / Spring Boot" style="rounded=0;whiteSpace=wrap;html=1;fillColor=#dae8fc;strokeColor=#6c8ebf;" vertex="1" parent="1">
          <mxGeometry x="2384" y="805" width="226" height="100" as="geometry" />
        </mxCell>
        <mxCell id="IqUyI6zmpPItJnHVaUlp-7" style="edgeStyle=orthogonalEdgeStyle;rounded=0;orthogonalLoop=1;jettySize=auto;html=1;dashed=1;entryX=0.465;entryY=0.002;entryDx=0;entryDy=0;entryPerimeter=0;" edge="1" parent="1" target="IqUyI6zmpPItJnHVaUlp-5">
          <mxGeometry relative="1" as="geometry">
            <Array as="points">
              <mxPoint x="2490" y="790" />
            </Array>
            <mxPoint x="2490" y="720" as="sourcePoint" />
            <mxPoint x="2410" y="640" as="targetPoint" />
          </mxGeometry>
        </mxCell>
        <mxCell id="IqUyI6zmpPItJnHVaUlp-9" value="(HTTP/ JSON)" style="edgeLabel;html=1;align=center;verticalAlign=middle;resizable=0;points=[];" connectable="0" vertex="1" parent="1">
          <mxGeometry x="2590.000552850176" y="929.9973804651665" as="geometry">
            <mxPoint x="-103" y="-183" as="offset" />
          </mxGeometry>
        </mxCell>
        <mxCell id="IqUyI6zmpPItJnHVaUlp-11" value="Payment MQ" style="swimlane;fontStyle=0;childLayout=stackLayout;horizontal=1;startSize=40;fillColor=none;horizontalStack=0;resizeParent=1;resizeParentMax=0;resizeLast=0;collapsible=1;marginBottom=0;html=1;" vertex="1" parent="1">
          <mxGeometry x="1858" y="2338" width="190" height="100" as="geometry" />
        </mxCell>
        <mxCell id="IqUyI6zmpPItJnHVaUlp-12" style="edgeStyle=orthogonalEdgeStyle;rounded=0;orthogonalLoop=1;jettySize=auto;html=1;" edge="1" parent="1">
          <mxGeometry relative="1" as="geometry">
            <mxPoint x="1730" y="2230" as="sourcePoint" />
            <mxPoint x="1944" y="2340" as="targetPoint" />
            <Array as="points">
              <mxPoint x="1730" y="2219" />
              <mxPoint x="1730" y="2300" />
              <mxPoint x="1944" y="2300" />
            </Array>
          </mxGeometry>
        </mxCell>
        <mxCell id="IqUyI6zmpPItJnHVaUlp-13" value="&lt;b style=&quot;border-color: var(--border-color);&quot;&gt;PAYMENT DB&lt;/b&gt;" style="shape=cylinder3;whiteSpace=wrap;html=1;boundedLbl=1;backgroundOutline=1;size=15;" vertex="1" parent="1">
          <mxGeometry x="1883" y="2670" width="140" height="170" as="geometry" />
        </mxCell>
        <mxCell id="IqUyI6zmpPItJnHVaUlp-14" value="&lt;font style=&quot;font-size: 12px;&quot;&gt;&lt;b style=&quot;border-color: var(--border-color);&quot;&gt;PAYMENTSERVICE&lt;/b&gt;&lt;/font&gt;&lt;div&gt;&lt;font style=&quot;font-size: 12px;&quot;&gt;Processa o pagamento e notifica&amp;nbsp;&lt;/font&gt;&lt;/div&gt;" style="rounded=0;whiteSpace=wrap;html=1;fillColor=#dae8fc;strokeColor=#6c8ebf;" vertex="1" parent="1">
          <mxGeometry x="1840" y="2500" width="226" height="100" as="geometry" />
        </mxCell>
        <mxCell id="IqUyI6zmpPItJnHVaUlp-15" style="edgeStyle=orthogonalEdgeStyle;rounded=0;orthogonalLoop=1;jettySize=auto;html=1;entryX=0.5;entryY=0;entryDx=0;entryDy=0;exitX=0.5;exitY=1;exitDx=0;exitDy=0;" edge="1" parent="1" target="IqUyI6zmpPItJnHVaUlp-14">
          <mxGeometry relative="1" as="geometry">
            <mxPoint x="1952.38" y="2440" as="sourcePoint" />
            <mxPoint x="1952.38" y="2490" as="targetPoint" />
          </mxGeometry>
        </mxCell>
        <mxCell id="IqUyI6zmpPItJnHVaUlp-16" value="" style="endArrow=classic;startArrow=classic;html=1;rounded=0;exitX=0.5;exitY=0;exitDx=0;exitDy=0;exitPerimeter=0;" edge="1" parent="1" source="IqUyI6zmpPItJnHVaUlp-13">
          <mxGeometry width="50" height="50" relative="1" as="geometry">
            <mxPoint x="1908.25" y="2650" as="sourcePoint" />
            <mxPoint x="1953" y="2600" as="targetPoint" />
          </mxGeometry>
        </mxCell>
        <mxCell id="IqUyI6zmpPItJnHVaUlp-19" style="edgeStyle=orthogonalEdgeStyle;rounded=0;orthogonalLoop=1;jettySize=auto;html=1;exitX=0.453;exitY=0.005;exitDx=0;exitDy=0;exitPerimeter=0;" edge="1" parent="1" source="IqUyI6zmpPItJnHVaUlp-14">
          <mxGeometry relative="1" as="geometry">
            <mxPoint x="1944.75" y="2511" as="sourcePoint" />
            <mxPoint x="1733" y="2440" as="targetPoint" />
            <Array as="points">
              <mxPoint x="1942" y="2480" />
              <mxPoint x="1733" y="2480" />
            </Array>
          </mxGeometry>
        </mxCell>
        <mxCell id="IqUyI6zmpPItJnHVaUlp-20" value="" style="endArrow=classic;html=1;rounded=0;entryX=0;entryY=0.5;entryDx=0;entryDy=0;exitX=0;exitY=0.5;exitDx=0;exitDy=0;" edge="1" parent="1">
          <mxGeometry width="50" height="50" relative="1" as="geometry">
            <mxPoint x="1597" y="2540" as="sourcePoint" />
            <mxPoint x="1589" y="2160" as="targetPoint" />
            <Array as="points">
              <mxPoint x="1520" y="2540" />
              <mxPoint x="1520" y="2160" />
            </Array>
          </mxGeometry>
        </mxCell>
        <mxCell id="IqUyI6zmpPItJnHVaUlp-21" value="(HTTP/ JSON)" style="edgeLabel;html=1;align=center;verticalAlign=middle;resizable=0;points=[];" connectable="0" vertex="1" parent="1">
          <mxGeometry x="1143.9999999999995" y="2480.003333333333" as="geometry">
            <mxPoint x="371" y="-11" as="offset" />
          </mxGeometry>
        </mxCell>
        <mxCell id="IqUyI6zmpPItJnHVaUlp-23" value="(HTTP/ JSON)" style="edgeLabel;html=1;align=center;verticalAlign=middle;resizable=0;points=[];" connectable="0" vertex="1" parent="1">
          <mxGeometry x="1629.9999999999995" y="2270.003333333333" as="geometry">
            <mxPoint x="371" y="-11" as="offset" />
          </mxGeometry>
        </mxCell>
        <mxCell id="IqUyI6zmpPItJnHVaUlp-24" value="(HTTP/ JSON)" style="edgeLabel;html=1;align=center;verticalAlign=middle;resizable=0;points=[];" connectable="0" vertex="1" parent="1">
          <mxGeometry x="1469.9999999999995" y="2480.003333333333" as="geometry">
            <mxPoint x="371" y="-11" as="offset" />
          </mxGeometry>
        </mxCell>
        <mxCell id="IqUyI6zmpPItJnHVaUlp-25" value="Leitura e escrita" style="edgeLabel;html=1;align=center;verticalAlign=middle;resizable=0;points=[];" connectable="0" vertex="1" parent="1">
          <mxGeometry x="1950" y="2630" as="geometry" />
        </mxCell>
        <mxCell id="IqUyI6zmpPItJnHVaUlp-26" value="Leitura" style="edgeLabel;html=1;align=center;verticalAlign=middle;resizable=0;points=[];" connectable="0" vertex="1" parent="1">
          <mxGeometry x="2203" y="2590" as="geometry" />
        </mxCell>
      </root>
    </mxGraphModel>
  </diagram>
</mxfile>
